<?xml version="1.0" encoding="UTF-8"?>
<svg width="818px" height="285px" viewBox="0 0 818 285" version="1.1" xmlns="http://www.w3.org/2000/svg" xmlns:xlink="http://www.w3.org/1999/xlink">
    <title>logo</title>
    <defs>
        <linearGradient x1="36.5130383%" y1="52.2975505%" x2="51.3860684%" y2="47.5543482%" id="linearGradient-1">
            <stop stop-color="#571614" offset="0%"></stop>
            <stop stop-color="#E53935" offset="100%"></stop>
        </linearGradient>
        <linearGradient x1="20.3550931%" y1="31.4888568%" x2="109.885253%" y2="31.4888568%" id="linearGradient-2">
            <stop stop-color="#FFFFFF" stop-opacity="0.35" offset="0%"></stop>
            <stop stop-color="#FFFFFF" stop-opacity="0.85" offset="100%"></stop>
        </linearGradient>
    </defs>
    <g id="Page-1" stroke="none" stroke-width="1" fill="none" fill-rule="evenodd">
        <g id="logo">
            <g id="icon">
                <path d="M98.2826903,0.126066033 C87.9506464,-0.0351391738 82.6528998,-0.0131111331 80,0.0359513212 C77.3471002,-0.0131111331 72.0482032,-0.0351391738 61.7173097,0.126066033 C43.5266541,0.408425464 18.1906556,28.6794132 9.74417233,35.7474104 C1.2988395,42.8154077 0,47.6215257 0,69.3902363 C0,91.1589469 3.57324667,139.502486 11.871324,166.672072 C33.2084154,236.525993 55.8696559,261.634955 65.9394009,274.921869 C70.7850271,281.315007 74.7988898,283.77614 77.6634694,284.615208 C77.9924934,284.754385 78.7931952,285.022727 80,284.996694 C81.2056544,285.022727 82.0063561,284.754385 82.3353801,284.615208 C85.1999597,283.77614 89.2149729,281.315007 94.0594487,274.921869 C104.129194,261.634955 126.790434,236.525993 148.127526,166.672072 C156.426753,139.502486 160,91.1589469 160,69.3902363 C160,47.6215257 158.70001,42.8154077 150.254677,35.7474104 C141.809344,28.6794132 116.472195,0.408425464 98.2826903,0.126066033 Z" id="Fill-1" fill="url(#linearGradient-1)"></path>
                <path d="M99.2580503,255 C128.70063,203.435446 145.575694,148.007565 149.883241,88.7163572 C152.408582,71.5107013 150.411984,48.6435089 146.290549,44.7777625 C142.169114,40.9120161 116.040534,13.4536641 109.939453,12.3781467 C96.2434248,9.96376873 96.5492278,19.4464995 93.3649309,31.2527907 C90.180634,43.0590818 82.0482475,57.7132766 86.1144408,65.2100144 C90.180634,72.7067523 98.9877599,148.47264 94.584197,174.535585 C91.6484883,191.910881 93.2064394,218.732353 99.2580503,255 Z" id="Path" fill="url(#linearGradient-2)"></path>
            </g>
            <g id="UNSTAKE" transform="translate(200, 75)" fill="#FFFFFF" fill-rule="nonzero">
                <path d="M66,1.2 L66,111.6 C66,116.266667 65.1666667,120.566667 63.5,124.5 C61.8333333,128.433333 59.4666667,131.933333 56.4,135 C53.3333333,138.066667 49.8,140.466667 45.8,142.2 C41.8,143.933333 37.5333333,144.8 33,144.8 C28.4666667,144.8 24.2333333,143.933333 20.3,142.2 C16.3666667,140.466667 12.8666667,138.066667 9.8,135 C6.73333333,131.933333 4.33333333,128.433333 2.6,124.5 C0.866666667,120.566667 0,116.266667 0,111.6 L0,1.2 L20.4,1.2 L20.4,109.6 C20.4,114.666667 21.6,118.4 24,120.8 C26.4,123.2 29.4,124.4 33,124.4 C36.6,124.4 39.6,123.2 42,120.8 C44.4,118.4 45.6,114.666667 45.6,109.6 L45.6,1.2 L66,1.2 Z" id="Path"></path>
                <polygon id="Path" points="84.4 143.6 84.4 1.2 104 1.2 134.8 87 135.2 87 135.2 1.2 155.6 1.2 155.6 193.014601 105.2 58 104.8 58 104.8 143.6"></polygon>
                <path d="M240,42.2 L219.6,42.2 L219.6,37.6 C219.6,32.9333333 218.5,28.9 216.3,25.5 C214.1,22.1 210.4,20.4 205.2,20.4 C202.4,20.4 200.133333,20.9333333 198.4,22 C196.666667,23.0666667 195.266667,24.4 194.2,26 C193.133333,27.7333333 192.4,29.7 192,31.9 C191.6,34.1 191.4,36.4 191.4,38.8 C191.4,41.6 191.5,43.9333333 191.7,45.8 C191.9,47.6666667 192.4,49.3333333 193.2,50.8 C194,52.2666667 195.166667,53.5333333 196.7,54.6 C198.233333,55.6666667 200.333333,56.7333333 203,57.8 L218.6,64 C223.133333,65.7333333 226.8,67.7666667 229.6,70.1 C232.4,72.4333333 234.6,75.1333333 236.2,78.2 C237.666667,81.4 238.666667,85.0333333 239.2,89.1 C239.733333,93.1666667 240,97.8 240,103 C240,109 239.4,114.566667 238.2,119.7 C237,124.833333 235.066667,129.2 232.4,132.8 C229.6,136.533333 225.933333,139.466667 221.4,141.6 C216.866667,143.733333 211.333333,144.8 204.8,144.8 C199.866667,144.8 195.266667,143.933333 191,142.2 C186.733333,140.466667 183.066667,138.066667 180,135 C176.933333,131.933333 174.5,128.366667 172.7,124.3 C170.9,120.233333 170,115.8 170,111 L170,103.4 L190.4,103.4 L190.4,109.8 C190.4,113.533333 191.5,116.9 193.7,119.9 C195.9,122.9 199.6,124.4 204.8,124.4 C208.266667,124.4 210.966667,123.9 212.9,122.9 C214.833333,121.9 216.333333,120.466667 217.4,118.6 C218.466667,116.733333 219.1,114.5 219.3,111.9 C219.5,109.3 219.6,106.4 219.6,103.2 C219.6,99.4666667 219.466667,96.4 219.2,94 C218.933333,91.6 218.4,89.6666667 217.6,88.2 C216.666667,86.7333333 215.433333,85.5333333 213.9,84.6 C212.366667,83.6666667 210.333333,82.6666667 207.8,81.6 L193.2,75.6 C184.4,72 178.5,67.2333333 175.5,61.3 C172.5,55.3666667 171,47.9333333 171,39 C171,33.6666667 171.733333,28.6 173.2,23.8 C174.666667,19 176.866667,14.8666667 179.8,11.4 C182.6,7.93333333 186.166667,5.16666667 190.5,3.1 C194.833333,1.03333333 200,0 206,0 C211.066667,0 215.7,0.933333333 219.9,2.8 C224.1,4.66666667 227.733333,7.13333333 230.8,10.2 C236.933333,16.6 240,23.9333333 240,32.2 L240,42.2 Z" id="Path"></path>
                <polygon id="Path" points="268.6 143.6 268.6 20.4 245 20.4 245 1.2 312.6 1.2 312.6 20.4 289 20.4 289 143.6"></polygon>
                <path d="M351.8,93.8 L341.8,42.2 L341.4,42.2 L331.4,93.8 L351.8,93.8 Z M301.4,143.6 L333.2,1.2 L350.2,1.2 L382,143.6 L361.6,143.6 L355.6,113 L327.8,113 L321.8,143.6 L301.4,143.6 Z" id="Shape"></path>
                <polygon id="Path" points="392 143.6 392 1.2 412.4 1.2 412.4 66.2 412.8 66.2 442.6 1.2 463 1.2 435.2 58.2 468.2 143.6 446.6 143.6 423.4 80.4 412.4 101 412.4 143.6"></polygon>
                <polygon id="Path" points="477.2 143.6 477.2 1.2 538 1.2 538 20.4 497.6 20.4 497.6 62.2 532.8 62.2 532.8 81.4 497.6 81.4 497.6 123.2 538 123.2 538 143.6"></polygon>
                <g id=".FI" opacity="0.75" transform="translate(551.2, 73.8)">
                    <polygon id="Path" points="0 71.2 0 61 10.2 61 10.2 71.2"></polygon>
                    <polygon id="Path" points="19.2 71.2 19.2 0 49.6 0 49.6 9.6 29.4 9.6 29.4 31.2 47 31.2 47 40.8 29.4 40.8 29.4 71.2"></polygon>
                    <polygon id="Path" points="56.5 71.2 56.5 0 66.7 0 66.7 71.2"></polygon>
                </g>
            </g>
        </g>
    </g>
</svg>